@startuml crear_usuario

skinparam {
  NoteBackgroundColor #whiteSmoke
  ArrowColor #green
  NoteBorderColor #green
  linetype polyline
}

hide empty description

state startState as "LISTANDO_USUARIOS"
state endState as "LISTANDO_USUARIOS"

startState --> CrearUsuario
CrearUsuario --> endState

state CrearUsuario {
    state solicitudCrearUsuario as " "
    state envioCrearUsuario as " "
    state revisionCrearUsuario <<choice>>
    state usuarioSolicita as "<b>Usuario Solicita:</b> \n Crear usuario"

    usuarioSolicita --> solicitudCrearUsuario
    solicitudCrearUsuario --> envioCrearUsuario
    note on link
        <b>Sistema Solicita</b>
        * Campos a crear
        * <b>Campos:</b>
            - Nombre del usuario
            - Correo del usuario
            - Contraseña del usuario

        <b>Sistema Permite</b>
        * Crear usuario
    end note

    envioCrearUsuario --> revisionCrearUsuario
    note on link
        <b>Usuario introduce</b>
        * Campos a crear
        * <b>Campos</b>
            - Nombre del usuario
            - Correo del usuario
            - Generar contraseña del usuario
    end note

    revisionCrearUsuario -[#red]-> solicitudCrearUsuario
    note on link
        <b>Sistema Muestra</b>
        Mensaje de error
    end note

   revisionCrearUsuario --> [*]
    note on link
        <b>Sistema Muestra</b>
        Usuario creado correctamente
    end note
}

@enduml