@startuml
skinparam {
    NoteBackgroundColor #whiteSmoke
    ArrowColor #green
    NoteBorderColor #green
    linetype polyline
}

hide empty description

state startState as "MENU_PRINCIPAL"
state endState as "LISTANDO_GRUPOS"

startState --> ListarGrupos
note on link
    <b>Usuario Solicita</b>
    * Listar Grupos
end note

ListarGrupos --> endState
ListarGrupos -[#red]-> endState

state ListarGrupos {
    state solicitudFiltros as " "
    state envioFiltros as " "
    state revisionFiltrosEnviados <<choice>>
    [*] --> solicitudFiltros
    note on link
        <b>Sistema Muestra</b>
        Lista de grupos
    end note

    solicitudFiltros -r-> [*]

    solicitudFiltros --> envioFiltros
    note on link
        <b>Sistema Permite</b>
        Filtros opcionales
    end note

    envioFiltros --> revisionFiltrosEnviados
    note on link
        <b>Usuario Introduce</b>
        * <b> Filtros opcionales </b>
            - Términos de búsqueda
            - Nombre del grupo
            - Usuario del grupo
    end note

    revisionFiltrosEnviados -[#red]-> [*]
    note on link
        <b>Sistema Muestra</b>
        Mensaje de error
    end note

    revisionFiltrosEnviados --> [*]
    note on link
        <b>Sistema Muestra</b>
        Lista de grupos filtrada

    end note
}
@enduml