@startuml borrar_grupo

skinparam {
    NoteBackgroundColor #whiteSmoke
    ArrowColor #green
    NoteBorderColor #green
    linetype polyline
}

hide empty description

state startState as "LISTANDO_GRUPOS"
state endState as "LISTANDO_GRUPOS"
state listarGrupos as "listarGrupos"

startState --> BorrarGrupo
note on link
    <b>Usuario Solicita</b>
    * Borrar Grupo
end note

BorrarGrupo -[#red]-> endState
BorrarGrupo --> listarGrupos
listarGrupos --> endState

state BorrarGrupo {
    state solicitudFiltros as " "
    state revisionFiltrosEnviados <<choice>>

    solicitudFiltros --> revisionFiltrosEnviados
    note on link
        <b>Sistema permite</b>
        * Borrar grupo
    end note

    revisionFiltrosEnviados -[#red]-> [*]
    note on link
        <b>Sistema Muestra</b>
        Mensaje de error
    end note

    revisionFiltrosEnviados --> [*]
    note on link
        <b>Sistema Muestra</b>
        Mensaje de confirmación
    end note
}

@enduml
