@startuml leer_confirmar_documento

skinparam {
  NoteBackgroundColor #whiteSmoke
  ArrowColor #green
  NoteBorderColor #green
  linetype polyline
}

hide empty description

state startState as "LEYENDO_MENSAJE"
state endState as "LEYENDO_MENSAJE"


startState --> LeerMensaje
note on link
    <b>Usuario Solicita</b>
    * Leer Mensaje
end note

LeerMensaje --> endState
LeerMensaje -[#red]-> endState

state LeerMensaje {
    state solicitudAbrirMensaje as " "
    state solicitudAbrirDocumento as " "
    state solicitudConfirmacionLecturaFirma as " "
    state revisionConfirmacionLecturaFirma <<choice>>
    solicitudAbrirMensaje --> solicitudAbrirDocumento
    note on link
        <b>Sistema Permite</b>
        * Abrir Mensaje
    end note

    solicitudAbrirDocumento --> solicitudConfirmacionLecturaFirma
    note on link
        <b>Usuario Solicita</b>
        * Abrir Documento
        
        <b>Sistema Permite</b>
        * Abrir Documento
  
    end note
    
    solicitudConfirmacionLecturaFirma --> revisionConfirmacionLecturaFirma
    note on link
      <b>Opcional</b>
          <b>Sistema Permite</b>
          * Confirmar Lectura
          * Confirmar Firma
          
      <b>Opcional</b>    
          <b>Usuario Marca</b>
          * Confirmar Lectura
          * Confirmar Firma
    end note
    
    revisionConfirmacionLecturaFirma -[#red]-> solicitudAbrirMensaje
    note on link
        <b>Sistema Muestra</b>
        Mensaje de error
    end note
    
   revisionConfirmacionLecturaFirma --> [*]
    note on link
        <b>Sistema Muestra</b>
        Mensaje de respuesta enviada
    end note

}

@enduml