@startuml
hide empty description

[*] --> Inscrito : Inscribirse en asignatura
Inscrito --> EnClaseTeorica : Asistir a clases teóricas
Inscrito --> EnClasePractica : Asistir a clases prácticas

EnClaseTeorica --> EnEvaluacion : Completar teoría
EnClasePractica --> Rutina : Recibir rutina

state Rutina {
    [*] --> EsperandoRutina : Esperar rutina
    EsperandoRutina --> RutinaNoAsignada : Rutina no asignada
    EsperandoRutina --> RutinaAsignada : Rutina asignada
    RutinaNoAsignada --> EsperandoRutina
    RutinaAsignada --> EjecutandoRutina : Comenzar rutina
    EjecutandoRutina --> EjecutandoRutina : Continuar rutina
    EjecutandoRutina --> RutinaTerminada : Rutina completada
    RutinaTerminada --> [*] : Terminar rutina
}

Rutina --> EnEvaluacion : Completar prácticas
Rutina --> EnClaseTeorica : Refuerzo teórico

EnEvaluacion --> FinDelCurso : Es evaluado
FinDelCurso --> [*] : Terminar curso

@enduml
